<?xml version="1.0" ?><!DOCTYPE svg  PUBLIC '-//W3C//DTD SVG 1.1//EN'  'http://www.w3.org/Graphics/SVG/1.1/DTD/svg11.dtd'><svg enable-background="new 0 0 502 502" height="502px" id="Layer_1" version="1.1" viewBox="0 0 502 502" width="502px" xml:space="preserve" xmlns="http://www.w3.org/2000/svg" xmlns:xlink="http://www.w3.org/1999/xlink"><g><path d="M123.223,362.112c0,6.126,4.984,11.111,11.11,11.111h233.334c6.126,0,11.11-4.985,11.11-11.111V206.557   H123.223V362.112z M312.111,239.89c0-6.137,4.975-11.111,11.11-11.111h22.223c6.137,0,11.111,4.975,11.111,11.111v11.111   c0,6.137-4.975,11.111-11.111,11.111h-22.223c-6.136,0-11.11-4.975-11.11-11.111V239.89z M312.111,284.334   c0-6.137,4.975-11.111,11.11-11.111h22.223c6.137,0,11.111,4.975,11.111,11.111v11.111c0,6.136-4.975,11.111-11.111,11.111h-22.223   c-6.136,0-11.11-4.976-11.11-11.111V284.334z M256.556,239.89c0-6.137,4.975-11.111,11.11-11.111h22.223   c6.137,0,11.111,4.975,11.111,11.111v11.111c0,6.137-4.975,11.111-11.111,11.111h-22.223c-6.136,0-11.11-4.975-11.11-11.111V239.89   z M256.556,284.334c0-6.137,4.975-11.111,11.11-11.111h22.223c6.137,0,11.111,4.975,11.111,11.111v11.111   c0,6.136-4.975,11.111-11.111,11.111h-22.223c-6.136,0-11.11-4.976-11.11-11.111V284.334z M256.556,328.778   c0-6.136,4.975-11.11,11.11-11.11h22.223c6.137,0,11.111,4.975,11.111,11.11v11.111c0,6.136-4.975,11.111-11.111,11.111h-22.223   c-6.136,0-11.11-4.976-11.11-11.111V328.778z M201,239.89c0-6.137,4.975-11.111,11.111-11.111h22.223   c6.136,0,11.11,4.975,11.11,11.111v11.111c0,6.137-4.975,11.111-11.11,11.111h-22.223c-6.137,0-11.111-4.975-11.111-11.111V239.89z    M201,284.334c0-6.137,4.975-11.111,11.111-11.111h22.223c6.136,0,11.11,4.975,11.11,11.111v11.111   c0,6.136-4.975,11.111-11.11,11.111h-22.223c-6.137,0-11.111-4.976-11.111-11.111V284.334z M201,328.778   c0-6.136,4.975-11.11,11.111-11.11h22.223c6.136,0,11.11,4.975,11.11,11.11v11.111c0,6.136-4.975,11.111-11.11,11.111h-22.223   c-6.137,0-11.111-4.976-11.111-11.111V328.778z M145.444,284.334c0-6.137,4.975-11.111,11.111-11.111h22.223   c6.136,0,11.11,4.975,11.11,11.111v11.111c0,6.136-4.975,11.111-11.11,11.111h-22.223c-6.137,0-11.111-4.976-11.111-11.111V284.334   z M145.444,328.778c0-6.136,4.975-11.11,11.111-11.11h22.223c6.136,0,11.11,4.975,11.11,11.11v11.111   c0,6.136-4.975,11.111-11.11,11.111h-22.223c-6.137,0-11.111-4.976-11.111-11.111V328.778z" fill="#1C75BC"/><path d="M251,1C113.15,1,1,113.15,1,251.002C1,388.851,113.15,501,251,501s250-112.149,250-249.998   C501,113.15,388.85,1,251,1z M312.111,123.223c0-9.205,7.462-16.667,16.667-16.667c9.204,0,16.666,7.462,16.666,16.667v33.334   c0,9.204-7.462,16.666-16.666,16.666c-9.205,0-16.667-7.462-16.667-16.666V123.223z M234.334,123.223   c0-9.205,7.461-16.667,16.666-16.667s16.666,7.462,16.666,16.667v33.334c0,9.204-7.461,16.666-16.666,16.666   s-16.666-7.462-16.666-16.666V123.223z M156.556,123.223c0-9.205,7.462-16.667,16.666-16.667c9.205,0,16.667,7.462,16.667,16.667   v33.334c0,9.204-7.462,16.666-16.667,16.666c-9.204,0-16.666-7.462-16.666-16.666V123.223z M401,362.112   c0,18.38-14.953,33.333-33.333,33.333H134.333c-18.38,0-33.333-14.953-33.333-33.333v-188.89c0-18.38,14.953-33.333,33.333-33.333   h13.89v16.667c0,13.784,11.215,24.999,24.999,24.999c13.785,0,25.001-11.215,25.001-24.999V139.89H226v16.667   c0,13.784,11.215,24.999,25,24.999s25-11.215,25-24.999V139.89h27.777v16.667c0,13.784,11.216,24.999,25.001,24.999   c13.784,0,24.999-11.215,24.999-24.999V139.89h13.89c18.38,0,33.333,14.953,33.333,33.333V362.112z" fill="#1C75BC"/></g></svg>