<?xml version="1.0" ?><!DOCTYPE svg  PUBLIC '-//W3C//DTD SVG 1.1//EN'  'http://www.w3.org/Graphics/SVG/1.1/DTD/svg11.dtd'><svg enable-background="new 0 0 502 502" height="502px" id="Layer_1" version="1.1" viewBox="0 0 502 502" width="502px" xml:space="preserve" xmlns="http://www.w3.org/2000/svg" xmlns:xlink="http://www.w3.org/1999/xlink"><path d="M251,1C112.929,1,1,112.928,1,251c0,138.07,111.929,250,250,250c138.072,0,250-111.93,250-250  C501,112.928,389.072,1,251,1z M224.215,127.785c0-14.793,11.993-26.785,26.786-26.785c14.793,0,26.785,11.992,26.785,26.785  v107.143c0,14.793-11.992,26.787-26.785,26.787c-14.793,0-26.786-11.994-26.786-26.787V127.785z M349.49,360.203  C323.184,386.512,288.205,401,251.001,401c-37.205,0-72.183-14.488-98.49-40.797c-26.307-26.307-40.796-61.285-40.796-98.488  c0-41.248,18.128-80.133,49.734-106.686l0.003,0.002c4.658-3.916,10.666-6.279,17.227-6.279c14.793,0,26.786,11.994,26.786,26.787  c0,8.23-3.716,15.592-9.558,20.504l0.002,0.004c-19.46,16.35-30.622,40.283-30.622,65.668c0,47.262,38.451,85.713,85.715,85.713  c47.263,0,85.714-38.451,85.714-85.713c0-25.385-11.162-49.32-30.622-65.668l0.003-0.004c-5.843-4.914-9.56-12.275-9.56-20.506  c0-14.793,11.993-26.785,26.786-26.785c6.562,0,12.569,2.363,17.227,6.279l0.004-0.004c31.605,26.555,49.733,65.439,49.733,106.688  C390.286,298.918,375.798,333.896,349.49,360.203z" fill="#1C75BC"/></svg>