<?xml version="1.0" ?><!DOCTYPE svg  PUBLIC '-//W3C//DTD SVG 1.1//EN'  'http://www.w3.org/Graphics/SVG/1.1/DTD/svg11.dtd'><svg enable-background="new 0 0 502 502" height="502px" id="Layer_1" version="1.1" viewBox="0 0 502 502" width="502px" xml:space="preserve" xmlns="http://www.w3.org/2000/svg" xmlns:xlink="http://www.w3.org/1999/xlink"><g><path d="M251,1C113.15,1,1,113.15,1,251.002C1,388.851,113.15,501,251,501s250-112.149,250-249.998   C501,113.15,388.85,1,251,1z M365.783,373.607c0,15.104-12.283,27.393-27.393,27.393H163.609   c-15.102,0-27.393-12.289-27.393-27.393v-245.22c0-15.103,12.291-27.388,27.393-27.388h120.066c5.043,0,9.607,2.046,12.912,5.349   l64.135,63.15c3.131,3.278,5.061,7.724,5.061,12.618V373.607z" fill="#1C75BC"/><path d="M278.277,160.059V119.26H163.609c-5.035,0-9.133,4.097-9.133,9.128v245.22c0,5.036,4.098,9.133,9.133,9.133   h174.781c5.031,0,9.127-4.097,9.127-9.133V187.445H305.67C290.566,187.445,278.277,175.161,278.277,160.059z M187.088,162.569   h57.393c3.6,0,6.52,2.919,6.52,6.521c0,3.606-2.92,6.526-6.52,6.526h-57.393c-3.602,0-6.521-2.92-6.521-6.526   C180.566,165.488,183.486,162.569,187.088,162.569z M314.914,344.659H187.088c-3.602,0-6.521-2.92-6.521-6.526   c0-3.602,2.92-6.521,6.521-6.521h127.826c3.6,0,6.52,2.919,6.52,6.521C321.434,341.739,318.514,344.659,314.914,344.659z    M314.914,302.396H187.088c-3.602,0-6.521-2.92-6.521-6.521s2.92-6.521,6.521-6.521h127.826c3.6,0,6.52,2.92,6.52,6.521   S318.514,302.396,314.914,302.396z M314.914,260.138H187.088c-3.602,0-6.521-2.92-6.521-6.521c0-3.603,2.92-6.521,6.521-6.521   h127.826c3.6,0,6.52,2.919,6.52,6.521C321.434,257.218,318.514,260.138,314.914,260.138z M321.434,211.349   c0,3.601-2.92,6.521-6.52,6.521H187.088c-3.602,0-6.521-2.92-6.521-6.521c0-3.602,2.92-6.521,6.521-6.521h127.826   C318.514,204.827,321.434,207.747,321.434,211.349z" fill="#1C75BC"/></g></svg>