<?xml version="1.0" ?><!DOCTYPE svg  PUBLIC '-//W3C//DTD SVG 1.1//EN'  'http://www.w3.org/Graphics/SVG/1.1/DTD/svg11.dtd'><svg enable-background="new 0 0 502 502" height="502px" id="Layer_1" version="1.1" viewBox="0 0 502 502" width="502px" xml:space="preserve" xmlns="http://www.w3.org/2000/svg" xmlns:xlink="http://www.w3.org/1999/xlink"><g><path d="M251.001,194.781c-12.369,0-22.491,10.085-22.491,22.456c0,12.386,10.122,22.463,22.491,22.463   c12.364,0,22.503-10.077,22.503-22.463C273.504,204.866,263.365,194.781,251.001,194.781z" fill="#1C75BC"/><path d="M187.958,194.74c-12.46,0-22.521,10.107-22.521,22.497c0,12.406,10.061,22.503,22.521,22.503   c12.321,0,22.472-10.097,22.472-22.503C210.431,204.848,200.28,194.74,187.958,194.74z" fill="#1C75BC"/><path d="M314.053,194.746c-12.326,0-22.475,10.104-22.475,22.491c0,12.404,10.148,22.5,22.475,22.5   c12.442,0,22.512-10.096,22.512-22.5C336.564,204.851,326.495,194.746,314.053,194.746z" fill="#1C75BC"/><path d="M251,1C113.15,1,1,113.15,1,251.002C1,388.851,113.15,501,251,501s250-112.149,250-249.998   C501,113.15,388.85,1,251,1z M251,323.146c-10.899,0-21.503-0.87-31.749-2.427c-21.074,31.186-51.27,55.709-86.835,69.462   c-3.438,1.31-4.609-0.193-2.559-3.28c16.328-25.997,26.054-55.841,28.08-86.708C123.294,280.787,101,250.87,101,217.237   c0-58.446,67.19-105.892,150-105.892c82.834,0,150,47.445,150,105.892C401,275.72,333.834,323.146,251,323.146z" fill="#1C75BC"/></g></svg>